# xmcd
#
# Track frame offsets:
#	150
#	17202
#	37700
#	61385
#	75832
#	93987
#	115047
#	117132
#	133455
#	163967
#	186092
#	195602
#	200292
#	216592
#
# Disc length: 3000 seconds
#
# Revision: 5
# Processed by: cddbd v1.5.2PL0 Copyright (c) Steve Scherf et al.
# Submitted via: audiograbber 1.83.01
#
DISCID=be0bb60e
DTITLE=Earth, Wind and Fire - Spirit
DYEAR=1976
DGENRE=R&B
TTITLE0=Getaway
TTITLE1=On Your Face
TTITLE2=Imagination
TTITLE3=Spirit
TTITLE4=Saturday Nite
TTITLE5=Earth, Wind and Fire
TTITLE6=Departure
TTITLE7=Biyo
TTITLE8=Burnin' Bush
TTITLE9=Saturday Nite (Previously Unissued Alternate Mix)
TTITLE10=Seraphim (Previously Unissued)
TTITLE11=Imagination (Previously Unissued Angels Mix)
TTITLE12=Departure (The Traveler) (Previously Unissued)
TTITLE13=African Symphony (Previously Unissued)
EXTD=
EXTT0=
EXTT1=
EXTT2=
EXTT3=
EXTT4=
EXTT5=
EXTT6=
EXTT7=
EXTT8=
EXTT9=
EXTT10=
EXTT11=
EXTT12=
EXTT13=
PLAYORDER=
